HIERARCHY
ROOT joint_Root
{
	OFFSET 0.0 0.0 0.0
	CHANNELS 6 Xposition Yposition Zposition Zrotation Xrotation Yrotation 
	JOINT Hips
	{
		OFFSET -0.726466 93.3139 -2.00062
		CHANNELS 6 Xposition Yposition Zposition Zrotation Xrotation Yrotation 
		JOINT Spine
		{
			OFFSET 15.7357 0.0 0.0
			CHANNELS 6 Xposition Yposition Zposition Zrotation Xrotation Yrotation 
			JOINT Chest
			{
				OFFSET 8.98455 -0.406207 0.0
				CHANNELS 6 Xposition Yposition Zposition Zrotation Xrotation Yrotation 
				JOINT Neck
				{
					OFFSET 16.3773 0.0 0.0
					CHANNELS 6 Xposition Yposition Zposition Zrotation Xrotation Yrotation 
					JOINT Head
					{
						OFFSET 6.45672 0.0 0.0
						CHANNELS 6 Xposition Yposition Zposition Zrotation Xrotation Yrotation 
						End Site
						{
							OFFSET 0.0 0.0 0.0
						}
					}
				}
				JOINT Shoulder_L
				{
					OFFSET 12.9942 -0.242716 4.98039
					CHANNELS 6 Xposition Yposition Zposition Zrotation Xrotation Yrotation 
					JOINT UpperArm_L
					{
						OFFSET 5.34809 0.0 0.0
						CHANNELS 6 Xposition Yposition Zposition Zrotation Xrotation Yrotation 
						JOINT LowerArm_L
						{
							OFFSET 24.3286 1.87007e-05 0.0
							CHANNELS 6 Xposition Yposition Zposition Zrotation Xrotation Yrotation 
							JOINT Hand_L
							{
								OFFSET 22.2916 0.0 0.0
								CHANNELS 6 Xposition Yposition Zposition Zrotation Xrotation Yrotation 
								End Site
								{
									OFFSET 0.0 0.0 0.0
								}
							}
						}
					}
				}
				JOINT Shoulder_R
				{
					OFFSET 12.9945 -0.242716 -4.98039
					CHANNELS 6 Xposition Yposition Zposition Zrotation Xrotation Yrotation 
					JOINT UpperArm_R
					{
						OFFSET -5.34813 0.0 0.0
						CHANNELS 6 Xposition Yposition Zposition Zrotation Xrotation Yrotation 
						JOINT LowerArm_R
						{
							OFFSET -24.3289 0.000322201 0.0
							CHANNELS 6 Xposition Yposition Zposition Zrotation Xrotation Yrotation 
							JOINT Hand_R
							{
								OFFSET -22.2915 -0.000108084 0.0
								CHANNELS 6 Xposition Yposition Zposition Zrotation Xrotation Yrotation 
								End Site
								{
									OFFSET 0.0 0.0 0.0
								}
							}
						}
					}
				}
			}
		}
		JOINT UpperLeg_L
		{
			OFFSET -2.19248 -6.46944 0.0
			CHANNELS 6 Xposition Yposition Zposition Zrotation Xrotation Yrotation 
			JOINT LowerLeg_L
			{
				OFFSET 39.0811 0.0 -1.23785e-05
				CHANNELS 6 Xposition Yposition Zposition Zrotation Xrotation Yrotation 
				JOINT Foot_L
				{
					OFFSET 40.9854 0.0 -1.26872e-05
					CHANNELS 6 Xposition Yposition Zposition Zrotation Xrotation Yrotation 
					JOINT Toes_L
					{
						OFFSET 11.7543 0.0 0.0
						CHANNELS 6 Xposition Yposition Zposition Zrotation Xrotation Yrotation 
						End Site
						{
							OFFSET 0.0 0.0 0.0
						}
					}
				}
			}
		}
		JOINT UpperLeg_R
		{
			OFFSET -2.19251 6.46944 0.0
			CHANNELS 6 Xposition Yposition Zposition Zrotation Xrotation Yrotation 
			JOINT LowerLeg_R
			{
				OFFSET -39.0811 -0.00228153 -0.0401928
				CHANNELS 6 Xposition Yposition Zposition Zrotation Xrotation Yrotation 
				JOINT Foot_R
				{
					OFFSET -40.9854 0.0 0.0
					CHANNELS 6 Xposition Yposition Zposition Zrotation Xrotation Yrotation 
					JOINT Toes_R
					{
						OFFSET -11.7543 0.0 0.0
						CHANNELS 6 Xposition Yposition Zposition Zrotation Xrotation Yrotation 
						End Site
						{
							OFFSET 0.0 0.0 0.0
						}
					}
				}
			}
		}
	}
}
MOTION
Frames:	7
Frame Time:	0.0333333
0.000000 0.000000 0.000000 0.000000 0.000000 -0.000000 -0.871150 92.048300 -2.473950 87.759000 -1.713790 5.331730 15.735700 0.000005 -0.000001 83.876500 84.729600 -83.151800 8.984550 -0.406207 -0.000000 2.722920 -1.155300 1.475290 16.377300 -0.000001 -0.000001 6.151970 -1.352860 1.753960 6.456720 -0.000001 -0.000000 5.873520 -0.387465 -1.889150 12.994200 -0.242716 4.980390 -90.083800 0.250373 -71.498700 5.348090 -0.000007 -0.000001 -66.039200 37.522500 -10.860900 24.328600 0.000019 0.000005 4.099960 7.421040 -29.028800 22.291600 -0.000001 0.000005 6.837560 5.643930 -14.461100 12.994500 -0.242716 -4.980390 87.963100 5.843180 -70.743600 -5.348130 -0.000001 -0.000004 -65.701800 30.653800 -12.795500 -24.328900 0.000322 -0.000009 0.573751 1.680420 -18.886800 -22.291500 -0.000108 -0.000004 3.301380 5.560670 -9.219990 -2.192480 -6.469440 -0.000000 -168.938000 -18.928400 -2.203490 39.081100 -0.000007 -0.000012 -0.172780 0.401336 23.292700 40.985400 -0.000006 -0.000013 -5.761940 -0.058737 -63.450500 11.754300 -0.000000 0.000003 -0.000080 -0.000851 -16.610300 -2.192510 6.469440 -0.000001 173.478000 23.432900 -179.470000 -39.081100 -0.002282 -0.040193 -0.060075 0.173825 20.037700 -40.985400 0.000008 0.000006 -3.904890 3.589020 -62.565500 -11.754300 -0.000006 -0.000006 -0.003816 -0.049511 -18.587000
0.000000 0.000000 0.000000 0.000000 0.000000 -0.000000 -0.855261 92.051800 -2.503120 87.763200 -1.701800 5.400770 15.735700 0.000005 -0.000001 84.046600 84.720400 -83.341800 8.984550 -0.406207 -0.000000 2.743920 -1.125080 1.435080 16.377300 -0.000001 -0.000001 6.185080 -1.355850 1.778090 6.456720 -0.000001 -0.000000 5.821480 -0.418708 -1.959840 12.994200 -0.242716 4.980390 -90.085800 0.255992 -71.482200 5.348090 -0.000007 -0.000001 -65.808000 37.861300 -10.969000 24.328600 0.000019 0.000005 4.186560 7.526720 -29.197200 22.291600 -0.000001 0.000005 6.744800 5.644300 -14.493700 12.994500 -0.242716 -4.980390 87.965400 5.832490 -70.730700 -5.348130 -0.000001 -0.000004 -65.122400 30.673000 -13.335700 -24.328900 0.000322 -0.000009 0.559628 1.625800 -19.030500 -22.291500 -0.000108 -0.000004 3.383920 5.560180 -9.196070 -2.192480 -6.469440 -0.000000 -168.929000 -18.929000 -2.158400 39.081100 -0.000007 -0.000012 -0.173987 0.404318 23.283600 40.985400 -0.000006 -0.000013 -5.748320 -0.056229 -63.418200 11.754300 -0.000000 0.000003 -0.000092 -0.000956 -16.614300 -2.192510 6.469440 -0.000001 173.456000 23.419700 -179.427000 -39.081100 -0.002282 -0.040193 -0.058553 0.169547 20.049100 -40.985400 0.000008 0.000006 -3.841250 3.550930 -62.555300 -11.754300 -0.000006 -0.000006 -0.003727 -0.048568 -18.548600
0.000000 0.000000 0.000000 0.000000 0.000000 -0.000000 -0.836007 92.048100 -2.522110 87.792200 -1.665940 5.476350 15.735700 0.000005 -0.000001 84.187000 84.703700 -83.516400 8.984550 -0.406207 -0.000000 2.779410 -1.101030 1.366690 16.377300 -0.000001 -0.000001 6.157850 -1.335310 1.802650 6.456720 -0.000001 -0.000000 5.801800 -0.455391 -1.968340 12.994200 -0.242716 4.980390 -90.080100 0.238890 -71.467700 5.348090 -0.000007 -0.000001 -65.380200 38.444400 -11.210900 24.328600 0.000019 0.000005 4.289610 7.637380 -29.439300 22.291600 -0.000001 0.000005 6.617210 5.644800 -14.537100 12.994500 -0.242716 -4.980390 87.958500 5.842940 -70.702500 -5.348130 -0.000001 -0.000004 -64.347000 30.693300 -14.067800 -24.328900 0.000322 -0.000009 0.540822 1.560640 -19.150500 -22.291500 -0.000108 -0.000004 3.359530 5.558940 -9.134960 -2.192480 -6.469440 -0.000000 -168.958000 -18.859900 -2.119140 39.081100 -0.000007 -0.000012 -0.174504 0.405098 23.305100 40.985400 -0.000006 -0.000013 -5.736360 -0.074412 -63.417600 11.754300 -0.000000 0.000003 -0.000104 -0.001061 -16.618200 -2.192510 6.469440 -0.000001 173.376000 23.419200 -179.369000 -39.081100 -0.002282 -0.040193 -0.058828 0.170023 20.079200 -40.985400 0.000008 0.000006 -3.905570 3.534920 -62.551200 -11.754300 -0.000006 -0.000006 -0.003826 -0.049619 -18.591400
0.000000 0.000000 0.000000 0.000000 0.000000 -0.000000 -0.817029 92.046200 -2.551340 87.785700 -1.687760 5.480690 15.735700 0.000005 -0.000001 84.217400 84.713600 -83.565100 8.984550 -0.406207 -0.000000 2.759970 -1.092760 1.329610 16.377300 -0.000001 -0.000001 6.147260 -1.323730 1.785100 6.456720 -0.000001 -0.000000 5.759260 -0.440210 -2.015070 12.994200 -0.242716 4.980390 -90.099700 0.296843 -71.433000 5.348090 -0.000007 -0.000001 -64.560000 39.482800 -11.450600 24.328600 0.000019 0.000005 4.505740 7.806610 -30.120100 22.291600 -0.000001 0.000005 6.541350 5.646160 -14.660900 12.994500 -0.242716 -4.980390 87.978800 5.786210 -70.706900 -5.348130 -0.000001 -0.000004 -63.468200 30.571200 -15.031600 -24.328900 0.000322 -0.000009 0.628852 1.814540 -19.147900 -22.291500 -0.000108 -0.000004 3.195430 5.557960 -9.087470 -2.192480 -6.469440 -0.000000 -168.977000 -18.913400 -2.165080 39.081100 -0.000007 -0.000012 -0.172575 0.399476 23.364800 40.985400 -0.000006 -0.000013 -5.703030 -0.068863 -63.428600 11.754300 -0.000000 0.000003 -0.000097 -0.001003 -16.616100 -2.192510 6.469440 -0.000001 173.370000 23.440700 -179.394000 -39.081100 -0.002282 -0.040193 -0.059450 0.171590 20.093700 -40.985400 0.000008 0.000006 -3.906570 3.584540 -62.529200 -11.754300 -0.000006 -0.000006 -0.003802 -0.049360 -18.580800
0.000000 0.000000 0.000000 0.000000 0.000000 -0.000000 -0.797128 92.042600 -2.576060 87.789100 -1.705680 5.592550 15.735700 0.000005 -0.000001 84.392900 84.682100 -83.769300 8.984550 -0.406207 -0.000000 2.825330 -1.065080 1.272210 16.377300 -0.000001 -0.000001 6.097320 -1.293960 1.830850 6.456720 -0.000001 -0.000000 5.708750 -0.449857 -2.092850 12.994200 -0.242716 4.980390 -90.104300 0.310128 -71.406400 5.348090 -0.000007 -0.000001 -63.632000 40.589600 -11.715200 24.328600 0.000019 0.000005 4.607890 7.690080 -31.060500 22.291600 -0.000001 0.000005 6.299660 5.648180 -14.844700 12.994500 -0.242716 -4.980390 87.973000 5.810960 -70.732200 -5.348130 -0.000001 -0.000004 -62.229300 30.456500 -16.085900 -24.328900 0.000322 -0.000009 0.589724 1.676600 -19.413600 -22.291500 -0.000108 -0.000004 3.130880 5.557380 -9.058960 -2.192480 -6.469440 -0.000000 -168.954000 -18.879700 -2.069670 39.081100 -0.000007 -0.000012 -0.174033 0.402268 23.394900 40.985400 -0.000006 -0.000013 -5.700030 -0.098223 -63.442800 11.754300 -0.000000 0.000003 -0.000108 -0.001097 -16.619600 -2.192510 6.469440 -0.000001 173.313000 23.417400 -179.316000 -39.081100 -0.002282 -0.040193 -0.059706 0.171879 20.137800 -40.985400 0.000008 0.000006 -3.864930 3.604150 -62.533200 -11.754300 -0.000006 -0.000006 -0.003662 -0.047880 -18.520600
0.000000 0.000000 0.000000 0.000000 0.000000 -0.000000 -0.773567 92.039000 -2.616590 87.780200 -1.799380 5.656620 15.735700 0.000005 -0.000001 84.552700 84.661600 -83.948400 8.984550 -0.406207 -0.000000 2.868790 -1.038400 1.233350 16.377300 -0.000001 -0.000001 6.046430 -1.235960 1.824120 6.456720 -0.000001 -0.000000 5.645030 -0.423181 -2.143610 12.994200 -0.242716 4.980390 -90.118300 0.350014 -71.325500 5.348090 -0.000007 -0.000001 -62.313700 42.091800 -12.121500 24.328600 0.000019 0.000005 4.726430 7.503300 -32.339800 22.291600 -0.000001 0.000005 6.163610 5.650420 -15.055900 12.994500 -0.242716 -4.980390 87.963900 5.833760 -70.721600 -5.348130 -0.000001 -0.000004 -60.867700 29.927200 -17.317400 -24.328900 0.000322 -0.000009 0.694184 1.924100 -19.871500 -22.291500 -0.000108 -0.000004 3.158560 5.554530 -8.921750 -2.192480 -6.469440 -0.000000 -168.937000 -18.948800 -2.042020 39.081100 -0.000007 -0.000012 -0.173134 0.398991 23.457600 40.985400 -0.000006 -0.000013 -5.675080 -0.097376 -63.458300 11.754300 -0.000000 0.000003 -0.000101 -0.001037 -16.617300 -2.192510 6.469440 -0.000001 173.317000 23.322400 -179.325000 -39.081100 -0.002282 -0.040193 -0.058290 0.167545 20.190000 -40.985400 0.000008 0.000006 -3.833160 3.603000 -62.523400 -11.754300 -0.000006 -0.000006 -0.003828 -0.049643 -18.592400
0.000000 0.000000 0.000000 0.000000 0.000000 -0.000000 -0.745635 92.043000 -2.666010 87.785700 -1.883630 5.702490 15.735700 0.000005 -0.000001 84.720900 84.643400 -84.150800 8.984550 -0.406207 -0.000000 2.907380 -1.008900 1.164750 16.377300 -0.000001 -0.000001 5.977710 -1.178680 1.842290 6.456720 -0.000001 -0.000000 5.594650 -0.369183 -2.194710 12.994200 -0.242716 4.980390 -90.121900 0.358509 -71.219200 5.348090 -0.000007 -0.000001 -60.379700 44.120200 -12.833700 24.328600 0.000019 0.000005 4.981780 7.377550 -34.170100 22.291600 -0.000001 0.000005 6.091730 5.655730 -15.589000 12.994500 -0.242716 -4.980390 87.944500 5.866780 -70.652300 -5.348130 -0.000001 -0.000004 -59.338700 29.000000 -18.689000 -24.328900 0.000322 -0.000009 0.763958 2.036060 -20.596600 -22.291500 -0.000108 -0.000004 3.177220 5.555180 -8.952770 -2.192480 -6.469440 -0.000000 -168.953000 -18.948900 -2.006760 39.081100 -0.000007 -0.000012 -0.173279 0.399379 23.454900 40.985400 -0.000006 -0.000013 -5.666000 -0.178379 -63.447600 11.754300 -0.000000 0.000003 -0.000102 -0.001049 -16.617800 -2.192510 6.469440 -0.000001 173.307000 23.296600 -179.346000 -39.081100 -0.002282 -0.040193 -0.055320 0.159271 20.212900 -40.985400 0.000008 0.000006 -3.759550 3.637170 -62.487200 -11.754300 -0.000006 -0.000006 -0.003775 -0.049076 -18.569300
